
<?xml version="1.0" standalone="no"?>
<!DOCTYPE svg PUBLIC "-//W3C//DTD SVG 20010904//EN"
 "http://www.w3.org/TR/2001/REC-SVG-20010904/DTD/svg10.dtd">
<svg version="1.0" xmlns="http://www.w3.org/2000/svg"
 width="400.000000pt" height="470.000000pt" viewBox="0 0 400.000000 470.000000"
 preserveAspectRatio="xMidYMid meet">
<metadata>
Created by potrace 1.15, written by Peter Selinger 2001-2017
</metadata>
<g transform="translate(0.000000,470.000000) scale(0.100000,-0.100000)"
fill="#000000" stroke="none">
<path d="M1940 4224 c-19 -2 -78 -9 -130 -14 -268 -30 -481 -100 -645 -214
l-60 -42 -45 20 c-37 17 -65 21 -160 21 -109 0 -118 -2 -169 -30 -173 -95
-200 -350 -52 -488 26 -25 64 -50 85 -58 32 -11 36 -17 31 -37 -45 -179 -52
-526 -16 -797 12 -93 25 -221 28 -283 6 -122 3 -132 -44 -132 -44 0 -185 -52
-214 -78 -69 -61 -41 -191 49 -229 41 -17 87 -6 155 37 l47 30 0 -534 c0 -495
1 -538 19 -609 33 -128 116 -271 210 -361 l41 -40 -43 -24 c-51 -28 -90 -64
-128 -116 -23 -31 -29 -50 -29 -89 0 -42 5 -54 33 -82 39 -39 101 -60 150 -51
23 4 64 30 114 72 82 68 169 109 213 101 14 -3 68 -19 120 -35 148 -46 267
-64 468 -69 322 -9 584 35 809 137 l62 28 40 -28 c22 -16 63 -59 92 -94 65
-82 116 -106 181 -86 55 16 104 66 113 114 13 68 -67 193 -163 256 l-24 15 39
45 c119 137 180 271 222 492 43 226 49 436 25 855 l-7 111 51 -25 c93 -46 158
-28 194 54 25 56 20 114 -12 148 -27 29 -97 59 -175 76 -33 6 -64 16 -70 21
-6 5 -10 175 -11 446 -1 433 -9 576 -40 725 -8 38 -14 72 -14 77 0 4 20 20 44
34 103 60 151 156 144 285 -8 136 -81 231 -206 267 -80 24 -205 15 -274 -19
l-50 -25 -47 35 c-99 76 -253 137 -426 169 -86 15 -441 28 -525 18z m366 -44
c229 -19 387 -66 526 -156 185 -119 328 -315 392 -536 52 -180 58 -253 66
-833 5 -336 14 -621 25 -755 19 -255 23 -650 6 -770 -48 -345 -116 -505 -287
-674 -201 -197 -513 -306 -923 -322 -575 -23 -1027 177 -1200 531 -76 154 -75
146 -68 965 7 700 6 731 -14 885 -26 201 -36 546 -20 683 17 133 53 283 95
387 151 375 471 557 1041 594 180 12 220 12 361 1z m987 -190 c92 -43 144
-141 135 -254 -8 -95 -53 -167 -128 -206 l-35 -18 -28 75 -29 75 29 30 c22 23
28 38 28 74 0 39 -5 50 -33 75 -34 30 -93 39 -130 20 -13 -6 -29 5 -71 51 -32
35 -50 63 -45 68 5 5 34 16 64 25 74 20 182 14 243 -15z m-2296 -40 c75 -17
79 -22 43 -61 -18 -19 -43 -48 -56 -65 -22 -29 -28 -31 -52 -22 -41 16 -97 2
-122 -29 -43 -55 -38 -109 14 -158 l33 -30 -22 -65 c-20 -57 -25 -65 -45 -62
-60 7 -143 104 -160 188 -28 133 48 267 171 303 46 13 138 13 196 1z m2461
-1815 c80 -25 104 -42 116 -82 11 -37 -2 -44 -39 -22 -19 11 -39 18 -45 14
-12 -7 -14 -35 -2 -35 4 0 21 -11 37 -25 29 -24 29 -25 11 -40 -27 -20 -59
-19 -104 5 -73 38 -79 48 -86 133 -8 92 -10 91 112 52z m-2648 -68 c0 -70 -10
-85 -94 -141 -42 -28 -103 -35 -124 -14 -18 18 -15 24 23 48 35 21 44 43 25
55 -6 4 -26 -3 -46 -15 -19 -12 -38 -20 -41 -16 -14 14 14 71 44 89 38 22 147
55 186 56 27 1 27 0 27 -62z m2297 -1706 c62 -48 115 -129 116 -176 1 -41 -19
-70 -28 -39 -13 44 -53 109 -70 112 -32 7 -36 -13 -10 -48 26 -36 48 -97 39
-112 -3 -4 -23 -8 -45 -8 -35 0 -45 6 -72 38 -17 20 -59 64 -93 98 l-61 60 57
37 c32 21 65 46 75 57 25 28 36 25 92 -19z m-1933 -49 c34 -22 76 -48 95 -60
l34 -20 -51 -26 c-28 -14 -78 -48 -111 -76 -33 -28 -72 -55 -86 -60 -34 -13
-85 -2 -85 19 0 19 33 76 62 108 21 22 17 43 -7 43 -18 0 -64 -56 -82 -99 -11
-27 -17 -31 -24 -20 -23 36 -3 93 53 146 33 31 115 83 132 83 5 0 37 -17 70
-38z"/>
<path d="M2395 4007 c-141 -47 -230 -134 -275 -268 -77 -224 82 -470 329 -510
175 -28 362 74 439 238 37 79 39 219 4 303 -33 85 -108 162 -199 207 -68 34
-84 37 -167 40 -56 2 -106 -2 -131 -10z m210 -42 c109 -29 196 -101 241 -200
79 -173 4 -370 -176 -462 -50 -25 -65 -28 -160 -28 -98 0 -109 2 -165 32 -122
63 -199 182 -199 308 -1 167 105 306 264 349 72 19 123 19 195 1z"/>
<path d="M2242 3720 c-65 -40 -87 -109 -56 -176 44 -92 181 -99 234 -11 71
116 -63 257 -178 187z"/>
<path d="M1458 3970 c-161 -29 -295 -160 -328 -324 -38 -189 87 -388 282 -447
193 -59 402 31 491 210 27 56 32 78 35 156 3 73 0 101 -18 148 -68 180 -268
292 -462 257z m232 -72 c81 -38 134 -89 172 -166 30 -61 33 -75 33 -157 0 -80
-4 -97 -30 -148 -37 -75 -117 -149 -193 -178 -85 -34 -207 -32 -284 3 -72 33
-146 102 -183 170 -40 74 -47 196 -16 279 36 95 110 166 219 210 70 29 208 22
282 -13z"/>
<path d="M1260 3674 c-34 -23 -49 -43 -59 -81 -20 -71 32 -154 104 -167 48 -9
118 22 139 63 34 65 13 151 -44 185 -36 21 -109 21 -140 0z"/>
<path d="M1924 3336 c-50 -23 -64 -40 -64 -76 0 -12 -19 -27 -55 -45 -69 -34
-105 -82 -105 -143 0 -81 40 -122 121 -122 l39 0 -2 -101 -3 -100 33 -30 c37
-33 85 -38 132 -14 27 14 33 14 60 0 48 -25 97 -19 131 14 28 29 29 32 29 128
l0 99 47 15 c60 18 86 53 85 114 -1 71 -61 142 -136 161 -16 4 -26 13 -26 24
0 36 -14 53 -64 76 -36 17 -69 24 -111 24 -42 0 -75 -7 -111 -24z m376 -192
c36 -42 41 -93 10 -124 -15 -15 -33 -20 -75 -20 -31 0 -76 9 -105 20 -67 27
-118 25 -190 -5 -78 -33 -151 -34 -180 -3 -42 45 -13 130 56 163 38 18 39 18
77 -4 80 -46 215 -45 286 2 44 30 76 22 121 -29z m-270 -264 c0 -85 -3 -112
-16 -124 -25 -25 -61 -30 -89 -12 -25 16 -26 20 -23 112 l3 96 55 23 c30 13
58 21 62 19 5 -3 8 -54 8 -114z m104 93 c28 -10 54 -22 58 -28 4 -5 8 -49 8
-97 0 -82 -2 -89 -25 -104 -30 -19 -81 -11 -95 16 -11 20 -14 230 -4 230 4 0
29 -8 58 -17z"/>
</g>
</svg>
